<svg xmlns="http://www.w3.org/2000/svg" xmlns:xlink="http://www.w3.org/1999/xlink" width="1080" zoomAndPan="magnify" viewBox="0 0 810 1439.999935" height="1920" preserveAspectRatio="xMidYMid meet" version="1.0"><defs><clipPath id="033e43a383"><path d="M 262 538 L 548 538 L 548 902.304688 L 262 902.304688 Z M 262 538 " clip-rule="nonzero"/></clipPath></defs><rect x="-81" width="972" fill="#ffffff" y="-143.999994" height="1727.999922" fill-opacity="1"/><rect x="-81" width="972" fill="#2a4876" y="-143.999994" height="1727.999922" fill-opacity="1"/><path fill="#ffffff" d="M 267.433594 622.695312 C 266.082031 622.695312 264.726562 622.179688 263.695312 621.144531 C 262.664062 620.105469 262.144531 618.757812 262.144531 617.402344 C 262.144531 616.050781 262.65625 614.695312 263.695312 613.664062 L 337.511719 539.847656 C 339.578125 537.78125 342.929688 537.78125 344.996094 539.847656 C 346.027344 540.878906 346.550781 542.234375 346.550781 543.589844 C 346.550781 544.945312 346.035156 546.300781 344.996094 547.328125 L 271.175781 621.144531 C 270.144531 622.179688 268.789062 622.695312 267.433594 622.695312 Z M 267.433594 622.695312 " fill-opacity="1" fill-rule="nonzero"/><g clip-path="url(#033e43a383)"><path fill="#ffffff" d="M 542.523438 902.199219 L 267.433594 902.199219 C 264.515625 902.199219 262.144531 899.828125 262.144531 896.90625 L 262.144531 617.402344 C 262.144531 616 262.699219 614.652344 263.695312 613.664062 L 337.511719 539.847656 C 338.503906 538.855469 339.847656 538.296875 341.25 538.296875 L 542.523438 538.296875 C 545.441406 538.296875 547.8125 540.667969 547.8125 543.589844 L 547.8125 896.90625 C 547.8125 899.828125 545.441406 902.199219 542.523438 902.199219 Z M 272.726562 891.617188 L 537.230469 891.617188 L 537.230469 548.882812 L 343.445312 548.882812 L 272.726562 619.597656 Z M 272.726562 891.617188 " fill-opacity="1" fill-rule="nonzero"/></g><path fill="#ffffff" d="M 341.25 622.695312 L 267.433594 622.695312 C 264.515625 622.695312 262.144531 620.324219 262.144531 617.402344 C 262.144531 614.484375 264.515625 612.113281 267.433594 612.113281 L 335.957031 612.113281 L 335.957031 543.589844 C 335.957031 540.667969 338.328125 538.296875 341.25 538.296875 C 344.171875 538.296875 346.542969 540.667969 346.542969 543.589844 L 346.542969 617.402344 C 346.542969 620.324219 344.171875 622.695312 341.25 622.695312 Z M 341.25 622.695312 " fill-opacity="1" fill-rule="nonzero"/><path fill="#ffffff" d="M 508.636719 707.765625 L 349.324219 707.765625 C 346.402344 707.765625 344.03125 705.394531 344.03125 702.472656 C 344.03125 699.550781 346.402344 697.183594 349.324219 697.183594 L 508.628906 697.183594 C 511.550781 697.183594 513.921875 699.550781 513.921875 702.472656 C 513.921875 705.394531 511.558594 707.765625 508.636719 707.765625 Z M 508.636719 707.765625 " fill-opacity="1" fill-rule="nonzero"/><path fill="#ffffff" d="M 508.636719 754.65625 L 349.324219 754.65625 C 346.402344 754.65625 344.03125 752.285156 344.03125 749.363281 C 344.03125 746.441406 346.402344 744.070312 349.324219 744.070312 L 508.628906 744.070312 C 511.550781 744.070312 513.921875 746.441406 513.921875 749.363281 C 513.921875 752.285156 511.558594 754.65625 508.636719 754.65625 Z M 508.636719 754.65625 " fill-opacity="1" fill-rule="nonzero"/><path fill="#ffffff" d="M 508.636719 800.929688 L 349.324219 800.929688 C 346.402344 800.929688 344.03125 798.558594 344.03125 795.636719 C 344.03125 792.714844 346.402344 790.34375 349.324219 790.34375 L 508.628906 790.34375 C 511.550781 790.34375 513.921875 792.714844 513.921875 795.636719 C 513.921875 798.558594 511.558594 800.929688 508.636719 800.929688 Z M 508.636719 800.929688 " fill-opacity="1" fill-rule="nonzero"/><path fill="#ffffff" d="M 508.636719 848.46875 L 349.324219 848.46875 C 346.402344 848.46875 344.03125 846.097656 344.03125 843.175781 C 344.03125 840.253906 346.402344 837.882812 349.324219 837.882812 L 508.628906 837.882812 C 511.550781 837.882812 513.921875 840.253906 513.921875 843.175781 C 513.921875 846.097656 511.558594 848.46875 508.636719 848.46875 Z M 508.636719 848.46875 " fill-opacity="1" fill-rule="nonzero"/><path fill="#ffffff" d="M 309.609375 722.113281 C 298.777344 722.113281 289.972656 713.304688 289.972656 702.472656 C 289.972656 691.644531 298.777344 682.835938 309.609375 682.835938 C 320.441406 682.835938 329.246094 691.644531 329.246094 702.472656 C 329.246094 713.304688 320.441406 722.113281 309.609375 722.113281 Z M 309.609375 693.421875 C 304.621094 693.421875 300.558594 697.484375 300.558594 702.472656 C 300.558594 707.460938 304.621094 711.527344 309.609375 711.527344 C 314.597656 711.527344 318.664062 707.460938 318.664062 702.472656 C 318.664062 697.484375 314.605469 693.421875 309.609375 693.421875 Z M 309.609375 693.421875 " fill-opacity="1" fill-rule="nonzero"/><path fill="#ffffff" d="M 309.609375 769.746094 C 298.777344 769.746094 289.972656 760.941406 289.972656 750.109375 C 289.972656 739.277344 298.777344 730.472656 309.609375 730.472656 C 320.441406 730.472656 329.246094 739.285156 329.246094 750.109375 C 329.246094 760.933594 320.441406 769.746094 309.609375 769.746094 Z M 309.609375 741.058594 C 304.621094 741.058594 300.558594 745.121094 300.558594 750.109375 C 300.558594 755.097656 304.621094 759.164062 309.609375 759.164062 C 314.597656 759.164062 318.664062 755.097656 318.664062 750.109375 C 318.664062 745.121094 314.605469 741.058594 309.609375 741.058594 Z M 309.609375 741.058594 " fill-opacity="1" fill-rule="nonzero"/><path fill="#ffffff" d="M 309.609375 816.769531 C 298.777344 816.769531 289.972656 807.964844 289.972656 797.132812 C 289.972656 786.300781 298.777344 777.496094 309.609375 777.496094 C 320.441406 777.496094 329.246094 786.300781 329.246094 797.132812 C 329.246094 807.964844 320.441406 816.769531 309.609375 816.769531 Z M 309.609375 788.078125 C 304.621094 788.078125 300.558594 792.144531 300.558594 797.132812 C 300.558594 802.121094 304.621094 806.1875 309.609375 806.1875 C 314.597656 806.1875 318.664062 802.121094 318.664062 797.132812 C 318.664062 792.144531 314.605469 788.078125 309.609375 788.078125 Z M 309.609375 788.078125 " fill-opacity="1" fill-rule="nonzero"/><path fill="#ffffff" d="M 309.609375 865.054688 C 298.777344 865.054688 289.972656 856.25 289.972656 845.417969 C 289.972656 834.585938 298.777344 825.78125 309.609375 825.78125 C 320.441406 825.78125 329.246094 834.585938 329.246094 845.417969 C 329.246094 856.25 320.441406 865.054688 309.609375 865.054688 Z M 309.609375 836.367188 C 304.621094 836.367188 300.558594 840.429688 300.558594 845.417969 C 300.558594 850.40625 304.621094 854.472656 309.609375 854.472656 C 314.597656 854.472656 318.664062 850.40625 318.664062 845.417969 C 318.664062 840.429688 314.605469 836.367188 309.609375 836.367188 Z M 309.609375 836.367188 " fill-opacity="1" fill-rule="nonzero"/></svg>