<svg xmlns="http://www.w3.org/2000/svg" xmlns:xlink="http://www.w3.org/1999/xlink" width="500" zoomAndPan="magnify" viewBox="0 0 375 374.999991" height="500" preserveAspectRatio="xMidYMid meet" version="1.0"><defs><g/><clipPath id="63f4f22959"><path d="M 93.980469 93.9375 L 282 93.9375 L 282 161.929688 L 93.980469 161.929688 Z M 93.980469 93.9375 " clip-rule="nonzero"/></clipPath><clipPath id="cb820cd9b7"><path d="M 83 125 L 119.46875 125 L 119.46875 161.738281 L 83 161.738281 Z M 83 125 " clip-rule="nonzero"/></clipPath><clipPath id="8eed213c24"><path d="M 254.621094 125 L 291 125 L 291 161.738281 L 254.621094 161.738281 Z M 254.621094 125 " clip-rule="nonzero"/></clipPath><clipPath id="46ef290c59"><path d="M 93 213.0625 L 281.015625 213.0625 L 281.015625 281.054688 L 93 281.054688 Z M 93 213.0625 " clip-rule="nonzero"/></clipPath><clipPath id="fbb2a43008"><path d="M 255.527344 213.253906 L 292 213.253906 L 292 250 L 255.527344 250 Z M 255.527344 213.253906 " clip-rule="nonzero"/></clipPath><clipPath id="a602dec1c9"><path d="M 84 213.253906 L 120.378906 213.253906 L 120.378906 250 L 84 250 Z M 84 213.253906 " clip-rule="nonzero"/></clipPath></defs><g clip-path="url(#63f4f22959)"><path fill="#ff3131" d="M 197.9375 93.976562 C 197.9375 93.976562 198.496094 98.402344 199.011719 102.421875 C 199.527344 106.441406 198.050781 106.855469 198.050781 106.855469 C 198.050781 106.855469 199.953125 106.957031 199.914062 108.953125 C 199.875 110.949219 199.539062 115.015625 200.988281 116.078125 C 200.988281 116.078125 200.191406 114.730469 201.792969 114.5 C 203.398438 114.269531 206.449219 119.546875 203.84375 121.558594 C 201.238281 123.570312 201.25 118.847656 201.683594 117.765625 C 201.683594 117.765625 200.59375 119.222656 200.703125 121.691406 C 198.859375 118.1875 194.527344 114.644531 194.527344 114.644531 C 195.949219 114.972656 198.792969 116.054688 198.792969 116.054688 C 195.648438 113.691406 191.265625 112.914062 191.265625 112.914062 C 194.066406 114.230469 196.707031 117.527344 198.457031 120.542969 C 191.691406 115.839844 189.1875 109.828125 188.34375 107.019531 C 188.070312 106.042969 187.96875 105.269531 188.476562 104.023438 C 188.476562 104.023438 188.117188 103.308594 188.070312 101.511719 C 188.070312 101.511719 187.839844 103.496094 187.410156 103.976562 C 187.695312 105.007812 187.675781 106.140625 187.503906 107.21875 C 186.605469 110.101562 184.0625 115.945312 177.449219 120.542969 C 179.199219 117.527344 181.839844 114.230469 184.640625 112.914062 C 184.640625 112.914062 180.257812 113.6875 177.113281 116.054688 C 177.113281 116.054688 179.957031 114.972656 181.382812 114.644531 C 181.382812 114.644531 177.050781 118.1875 175.207031 121.691406 C 175.3125 119.222656 174.222656 117.765625 174.222656 117.765625 C 174.660156 118.847656 174.671875 123.570312 172.066406 121.558594 C 169.460938 119.546875 172.511719 114.269531 174.113281 114.5 C 175.71875 114.730469 174.917969 116.074219 174.917969 116.074219 C 176.371094 115.011719 176.035156 110.949219 175.996094 108.953125 C 175.953125 106.957031 177.859375 106.851562 177.859375 106.851562 C 177.859375 106.851562 176.382812 106.441406 176.898438 102.421875 C 177.414062 98.402344 177.972656 93.976562 177.972656 93.976562 C 176.773438 97.820312 174.324219 103.117188 172.933594 103.617188 C 175.808594 102.457031 176.074219 100.605469 176.074219 100.605469 C 175.996094 101.5 175.96875 103 175.476562 104.378906 C 174.984375 105.757812 173.5 106.238281 173.5 106.238281 C 174.269531 106.519531 174.113281 107.257812 174.113281 107.257812 C 173.335938 110.921875 168.011719 111.164062 165.828125 110.398438 C 163.648438 109.628906 162.585938 105.535156 162.585938 105.535156 C 161.28125 113.824219 167.960938 114.21875 167.960938 114.21875 C 167.960938 114.21875 162.03125 111.453125 168.585938 111.148438 C 175.136719 110.84375 172.066406 114.558594 172.066406 114.558594 C 166.984375 120.121094 159.917969 116.03125 159.917969 116.03125 C 149.085938 110.621094 146.9375 98.953125 146.9375 98.953125 C 146.886719 106.210938 151.71875 116.992188 151.71875 116.992188 C 150.613281 114.632812 150.789062 110.074219 150.789062 110.074219 C 152.78125 114.878906 161.28125 120.03125 161.289062 120.953125 C 161.292969 121.871094 159.808594 122.742188 159.808594 122.742188 C 162.109375 122.847656 165.070312 120.386719 163.894531 122.964844 C 162.71875 125.539062 157.304688 128.601562 151.671875 130.019531 C 146.039062 131.4375 139.183594 127.632812 139.183594 127.632812 C 141.6875 131.945312 137.777344 134.253906 133.160156 133.96875 C 128.542969 133.679688 125.625 125.957031 125.625 125.957031 C 125.625 125.957031 126.757812 128.675781 126.683594 130.933594 C 126.613281 133.191406 123.675781 132.679688 120.6875 126.332031 C 117.695312 119.984375 119.988281 116.484375 119.988281 116.484375 C 117.070312 119.617188 119.589844 124.023438 118.429688 124.257812 C 117.640625 124.414062 116.246094 124.128906 114.546875 123.480469 C 110.421875 114.40625 104.882812 109.246094 98.597656 108.078125 C 97.921875 105.277344 98.238281 102.273438 100.113281 99.195312 C 97.726562 100.285156 96.261719 103.734375 96.261719 103.734375 L 98.015625 101.582031 C 97.222656 103.574219 97.121094 105.730469 97.523438 107.917969 C 96.363281 107.789062 95.183594 107.789062 93.980469 107.921875 C 95.289062 108.167969 96.550781 108.542969 97.769531 109.03125 C 99.714844 116.523438 107.222656 124.113281 113.179688 126.445312 C 112.035156 125.148438 111.5625 124.003906 113.527344 124.511719 C 115.125 127.386719 116.441406 130.386719 117.449219 133.292969 L 118.699219 137.417969 C 118.699219 137.417969 118.472656 132.09375 118.613281 129.863281 L 117.902344 132.824219 C 117.121094 130.035156 116.242188 127.480469 115.277344 125.15625 C 118 126.425781 120.035156 128.757812 120.601562 130.269531 C 121.21875 131.921875 122.609375 139.769531 122.609375 139.769531 C 124.914062 145.203125 128.996094 145.855469 128.996094 145.855469 L 126.140625 146.171875 L 131.90625 146.101562 C 131.90625 146.101562 126.308594 145.609375 125.585938 141.496094 C 124.863281 137.382812 129.636719 137.097656 131.445312 137.574219 C 133.253906 138.046875 134.433594 137.601562 134.433594 137.601562 C 131.664062 135.628906 136.316406 134.796875 139.28125 136.480469 C 146.484375 140.574219 152.230469 157.066406 170.371094 161.867188 L 162.878906 155.210938 L 166.523438 159.640625 C 132.636719 144.613281 157.371094 121.753906 161.597656 131.664062 C 162.390625 128.417969 162.425781 123.222656 169.824219 122.617188 C 172.214844 122.417969 171.40625 126.765625 171.40625 126.765625 C 170.390625 131.113281 166.984375 132.652344 166.984375 132.652344 C 170.222656 132.242188 172.148438 130.304688 173.335938 128.109375 C 172.742188 130.675781 172.078125 133.085938 170.695312 134.230469 C 168.320312 136.195312 162.964844 136.132812 162.964844 136.132812 C 162.964844 136.132812 167.46875 138.195312 165.4375 139.871094 C 163.40625 141.546875 161.714844 142.210938 155.628906 141.644531 C 155.628906 141.644531 164.324219 146.09375 174.933594 135.261719 C 174.933594 135.261719 172.382812 136.816406 172.027344 135.160156 C 171.671875 133.507812 176.246094 128.460938 177.765625 128.089844 C 177.765625 128.089844 175 127.210938 175.390625 125.292969 C 176.285156 120.90625 183.128906 119.328125 186.492188 110.941406 C 187.632812 108.097656 188.070312 107.429688 189.292969 110.617188 C 192.605469 119.289062 199.613281 120.851562 200.519531 125.292969 C 200.910156 127.210938 198.144531 128.089844 198.144531 128.089844 C 199.664062 128.460938 204.238281 133.507812 203.882812 135.160156 C 203.527344 136.8125 200.976562 135.261719 200.976562 135.261719 C 211.585938 146.09375 220.28125 141.644531 220.28125 141.644531 C 214.199219 142.210938 212.503906 141.546875 210.472656 139.871094 C 208.441406 138.195312 212.945312 136.132812 212.945312 136.132812 C 212.945312 136.132812 207.589844 136.195312 205.214844 134.230469 C 203.835938 133.085938 203.167969 130.675781 202.574219 128.109375 C 203.761719 130.304688 205.6875 132.242188 208.929688 132.652344 C 208.929688 132.652344 205.519531 131.113281 204.503906 126.765625 C 204.503906 126.765625 203.695312 122.417969 206.085938 122.617188 C 213.484375 123.222656 213.519531 128.417969 214.3125 131.664062 C 218.539062 121.753906 243.273438 144.613281 209.386719 159.640625 L 213.03125 155.210938 L 205.539062 161.867188 C 223.679688 157.066406 229.425781 140.574219 236.628906 136.484375 C 239.59375 134.796875 244.25 135.628906 241.476562 137.605469 C 241.476562 137.605469 242.660156 138.046875 244.46875 137.574219 C 246.273438 137.101562 251.050781 137.382812 250.328125 141.496094 C 249.601562 145.609375 244.007812 146.101562 244.007812 146.101562 L 249.773438 146.171875 L 246.914062 145.855469 C 246.914062 145.855469 251 145.203125 253.300781 139.773438 C 253.300781 139.773438 254.691406 131.921875 255.308594 130.273438 C 255.878906 128.757812 257.910156 126.429688 260.632812 125.15625 C 259.667969 127.480469 258.789062 130.039062 258.007812 132.824219 L 257.296875 129.863281 C 257.4375 132.09375 257.210938 137.417969 257.210938 137.417969 L 258.460938 133.296875 C 259.472656 130.386719 260.785156 127.390625 262.382812 124.515625 C 264.351562 124.003906 263.875 125.148438 262.730469 126.449219 C 268.6875 124.113281 276.195312 116.527344 278.140625 109.03125 C 279.359375 108.542969 280.621094 108.167969 281.929688 107.921875 C 280.726562 107.789062 279.546875 107.789062 278.386719 107.917969 C 278.789062 105.730469 278.6875 103.574219 277.898438 101.585938 L 279.648438 103.734375 C 279.648438 103.734375 278.183594 100.289062 275.796875 99.195312 C 277.671875 102.273438 277.988281 105.28125 277.3125 108.078125 C 271.027344 109.246094 265.488281 114.410156 261.359375 123.480469 C 259.660156 124.128906 258.265625 124.414062 257.480469 124.257812 C 256.320312 124.023438 258.839844 119.617188 255.921875 116.484375 C 255.921875 116.484375 258.210938 119.984375 255.222656 126.332031 C 252.234375 132.679688 249.296875 133.191406 249.222656 130.933594 C 249.152344 128.679688 250.285156 125.957031 250.285156 125.957031 C 250.285156 125.957031 247.363281 133.683594 242.746094 133.96875 C 238.128906 134.253906 234.222656 131.945312 236.722656 127.632812 C 236.722656 127.632812 229.867188 131.441406 224.234375 130.019531 C 218.605469 128.601562 213.191406 125.539062 212.011719 122.964844 C 210.835938 120.390625 213.796875 122.847656 216.097656 122.742188 C 216.097656 122.742188 214.613281 121.875 214.621094 120.953125 C 214.625 120.03125 223.128906 114.882812 225.117188 110.074219 C 225.117188 110.074219 225.296875 114.632812 224.1875 116.996094 C 224.1875 116.996094 229.019531 106.214844 228.96875 98.953125 C 228.96875 98.953125 226.820312 110.621094 215.988281 116.035156 C 215.988281 116.035156 208.921875 120.121094 203.839844 114.558594 C 203.839844 114.558594 200.769531 110.84375 207.324219 111.148438 C 213.875 111.453125 207.945312 114.21875 207.945312 114.21875 C 207.945312 114.21875 214.625 113.824219 213.320312 105.539062 C 213.320312 105.539062 212.261719 109.632812 210.078125 110.398438 C 207.898438 111.164062 202.574219 110.925781 201.792969 107.257812 C 201.792969 107.257812 201.636719 106.519531 202.410156 106.238281 C 202.410156 106.238281 200.921875 105.761719 200.433594 104.378906 C 199.941406 103 199.910156 101.5 199.832031 100.605469 C 199.832031 100.605469 200.097656 102.457031 202.972656 103.617188 C 201.585938 103.117188 199.136719 97.824219 197.9375 93.976562 Z M 113.011719 126.976562 C 108.703125 125.972656 107.929688 126.957031 107.929688 126.957031 C 107.902344 125.355469 104.304688 122.632812 102.8125 119.648438 C 107.753906 124.824219 112.875 127.003906 113.011719 126.976562 Z M 99.0625 109.597656 C 104.488281 112.1875 108.960938 117.019531 112.355469 122.511719 C 107.417969 120.078125 101.230469 115.355469 99.0625 109.597656 Z M 145.449219 136.042969 C 145.371094 135.394531 146.078125 134.617188 146.078125 134.617188 C 146.078125 134.617188 143.578125 135.628906 141.828125 134.707031 C 140.078125 133.78125 141.621094 131.339844 144.515625 132.296875 C 147.414062 133.253906 151.851562 131.109375 151.851562 131.109375 C 150.535156 132.152344 148.171875 137.675781 146 136.417969 C 145.332031 136.035156 146.851562 134.335938 147.195312 134.082031 C 146.023438 134.847656 145.582031 135.53125 145.449219 136.042969 Z M 262.898438 126.976562 C 263.035156 127.003906 268.15625 124.824219 273.097656 119.648438 C 271.605469 122.632812 268.007812 125.355469 267.980469 126.957031 C 267.980469 126.957031 267.207031 125.972656 262.898438 126.976562 Z M 276.847656 109.597656 C 274.679688 115.355469 268.492188 120.078125 263.554688 122.511719 C 266.949219 117.019531 271.421875 112.1875 276.847656 109.597656 Z M 230.460938 136.042969 C 230.328125 135.53125 229.886719 134.847656 228.714844 134.078125 C 229.058594 134.332031 230.582031 136.035156 229.914062 136.417969 C 227.738281 137.675781 225.375 132.152344 224.058594 131.109375 C 224.058594 131.109375 228.496094 133.253906 231.394531 132.296875 C 234.289062 131.339844 235.832031 133.777344 234.082031 134.703125 C 232.332031 135.628906 229.832031 134.617188 229.832031 134.617188 C 229.832031 134.617188 230.539062 135.394531 230.460938 136.042969 Z M 230.460938 136.042969 " fill-opacity="1" fill-rule="evenodd"/></g><g clip-path="url(#cb820cd9b7)"><path fill="#ff3131" d="M 89.636719 125 C 89.636719 125 89.304688 132.941406 90.207031 135.390625 C 91.109375 137.835938 87.960938 139.105469 85.679688 137.457031 C 83.394531 135.8125 85.417969 133.179688 85.417969 133.179688 C 85.417969 133.179688 82.707031 135.5625 84.617188 138.675781 C 86.527344 141.789062 88.230469 140.539062 89.21875 143.726562 C 90.203125 146.917969 92.710938 150.148438 96.910156 152.492188 C 96.910156 152.492188 91.90625 149.414062 90.203125 143.261719 C 90.203125 143.261719 89.371094 141.578125 90.425781 140.074219 C 91.476562 138.570312 91.53125 137.894531 92.160156 137.667969 C 92.789062 137.4375 93.148438 138.535156 93.558594 138.953125 C 93.96875 139.371094 97.402344 141.789062 96.738281 144.003906 C 96.070312 146.21875 93.582031 143.308594 93.613281 140.726562 C 93.613281 140.726562 92.945312 142.167969 93.65625 143.890625 C 94.367188 145.613281 94.480469 146.746094 94.734375 147.859375 C 94.984375 148.96875 96.558594 150.351562 97.511719 151.226562 C 97.511719 151.226562 95.800781 149.433594 95.910156 148.117188 C 96.019531 146.800781 97.429688 146.929688 98.097656 148.734375 C 98.769531 150.539062 104.871094 160.152344 116.601562 159.152344 C 114.535156 161.136719 110.417969 161.835938 110.417969 161.835938 C 115.371094 161.914062 119.585938 158.394531 119.585938 158.394531 C 115.550781 159.425781 110.261719 158.855469 107.59375 155.390625 C 104.410156 154.59375 102.035156 151.304688 101.710938 150.835938 C 101.835938 151.019531 101.96875 151.203125 102.109375 151.390625 L 101.683594 150.792969 C 99.4375 147.488281 99.488281 145.085938 99.488281 145.085938 C 99.488281 145.085938 98.648438 141.476562 103.933594 146.058594 C 103.933594 146.058594 103.359375 144.871094 102.195312 143.78125 C 101.027344 142.695312 96.574219 139.433594 97.878906 138.847656 C 101.757812 137.101562 106.742188 142.515625 107.261719 146.203125 C 109.378906 148.09375 111.066406 151.128906 110.671875 154.078125 C 110.671875 154.078125 111.714844 150.953125 109.855469 146.828125 C 107.996094 142.695312 105.558594 137.4375 99.164062 133.449219 C 99.164062 133.449219 101.367188 136.15625 99.980469 136.703125 C 98.59375 137.253906 94.917969 133.367188 93.546875 130.578125 C 93.546875 130.578125 95.527344 135.015625 95.101562 135.945312 C 94.679688 136.878906 90.148438 136.589844 89.636719 125 Z M 89.636719 125 " fill-opacity="1" fill-rule="evenodd"/></g><g clip-path="url(#8eed213c24)"><path fill="#ff3131" d="M 284.453125 125 C 284.453125 125 284.785156 132.941406 283.882812 135.390625 C 282.980469 137.835938 286.128906 139.105469 288.410156 137.457031 C 290.695312 135.8125 288.671875 133.179688 288.671875 133.179688 C 288.671875 133.179688 291.382812 135.5625 289.472656 138.675781 C 287.5625 141.789062 285.859375 140.539062 284.871094 143.726562 C 283.886719 146.917969 281.378906 150.148438 277.179688 152.492188 C 277.179688 152.492188 282.183594 149.414062 283.886719 143.261719 C 283.886719 143.261719 284.71875 141.578125 283.664062 140.074219 C 282.613281 138.570312 282.558594 137.894531 281.929688 137.667969 C 281.300781 137.4375 280.941406 138.535156 280.53125 138.953125 C 280.121094 139.371094 276.6875 141.789062 277.351562 144.003906 C 278.019531 146.21875 280.507812 143.308594 280.480469 140.726562 C 280.480469 140.726562 281.144531 142.167969 280.433594 143.890625 C 279.722656 145.613281 279.609375 146.746094 279.355469 147.859375 C 279.105469 148.96875 277.53125 150.351562 276.578125 151.226562 C 276.578125 151.226562 278.289062 149.433594 278.179688 148.117188 C 278.070312 146.800781 276.660156 146.929688 275.992188 148.734375 C 275.320312 150.539062 269.21875 160.152344 257.488281 159.152344 C 259.554688 161.136719 263.671875 161.835938 263.671875 161.835938 C 258.71875 161.914062 254.503906 158.394531 254.503906 158.394531 C 258.539062 159.425781 263.828125 158.855469 266.496094 155.390625 C 269.679688 154.59375 272.054688 151.304688 272.378906 150.835938 C 272.253906 151.019531 272.121094 151.203125 271.980469 151.390625 L 272.40625 150.792969 C 274.652344 147.488281 274.601562 145.085938 274.601562 145.085938 C 274.601562 145.085938 275.441406 141.476562 270.15625 146.058594 C 270.15625 146.058594 270.730469 144.871094 271.894531 143.78125 C 273.0625 142.695312 277.515625 139.433594 276.210938 138.847656 C 272.332031 137.101562 267.347656 142.515625 266.828125 146.203125 C 264.710938 148.09375 263.023438 151.128906 263.417969 154.078125 C 263.417969 154.078125 262.375 150.953125 264.234375 146.828125 C 266.09375 142.695312 268.53125 137.4375 274.925781 133.449219 C 274.925781 133.449219 272.722656 136.15625 274.109375 136.703125 C 275.496094 137.253906 279.171875 133.367188 280.542969 130.578125 C 280.542969 130.578125 278.5625 135.015625 278.988281 135.945312 C 279.410156 136.878906 283.941406 136.589844 284.453125 125 Z M 284.453125 125 " fill-opacity="1" fill-rule="evenodd"/></g><g clip-path="url(#46ef290c59)"><path fill="#ff3131" d="M 177.0625 281.015625 C 177.0625 281.015625 176.5 276.589844 175.988281 272.570312 C 175.472656 268.550781 176.949219 268.136719 176.949219 268.136719 C 176.949219 268.136719 175.046875 268.035156 175.085938 266.039062 C 175.125 264.042969 175.460938 259.976562 174.011719 258.914062 C 174.011719 258.914062 174.808594 260.261719 173.203125 260.492188 C 171.601562 260.722656 168.550781 255.445312 171.15625 253.433594 C 173.761719 251.421875 173.75 256.144531 173.3125 257.226562 C 173.3125 257.226562 174.40625 255.769531 174.296875 253.300781 C 176.140625 256.804688 180.472656 260.347656 180.472656 260.347656 C 179.046875 260.019531 176.207031 258.9375 176.207031 258.9375 C 179.347656 261.300781 183.734375 262.074219 183.734375 262.074219 C 180.933594 260.761719 178.292969 257.464844 176.539062 254.449219 C 183.308594 259.152344 185.8125 265.164062 186.65625 267.96875 C 186.925781 268.949219 187.03125 269.71875 186.519531 270.96875 C 186.519531 270.96875 186.882812 271.683594 186.929688 273.480469 C 186.929688 273.480469 187.15625 271.496094 187.589844 271.015625 C 187.300781 269.984375 187.320312 268.851562 187.496094 267.773438 C 188.394531 264.890625 190.933594 259.046875 197.550781 254.449219 C 195.796875 257.464844 193.15625 260.761719 190.355469 262.078125 C 190.355469 262.078125 194.742188 261.300781 197.882812 258.9375 C 197.882812 258.9375 195.039062 260.019531 193.617188 260.347656 C 193.617188 260.347656 197.949219 256.804688 199.792969 253.300781 C 199.683594 255.769531 200.773438 257.226562 200.773438 257.226562 C 200.339844 256.144531 200.328125 251.421875 202.933594 253.433594 C 205.539062 255.445312 202.488281 260.722656 200.886719 260.492188 C 199.28125 260.261719 200.078125 258.914062 200.078125 258.914062 C 198.628906 259.976562 198.964844 264.042969 199.003906 266.039062 C 199.042969 268.035156 197.140625 268.136719 197.140625 268.136719 C 197.140625 268.136719 198.617188 268.550781 198.101562 272.570312 C 197.585938 276.589844 197.023438 281.015625 197.023438 281.015625 C 198.226562 277.167969 200.675781 271.875 202.066406 271.375 C 199.191406 272.535156 198.925781 274.386719 198.925781 274.386719 C 199.003906 273.488281 199.03125 271.992188 199.523438 270.613281 C 200.015625 269.230469 201.5 268.753906 201.5 268.753906 C 200.730469 268.472656 200.886719 267.734375 200.886719 267.734375 C 201.664062 264.066406 206.988281 263.828125 209.167969 264.59375 C 211.351562 265.359375 212.410156 269.453125 212.410156 269.453125 C 213.71875 261.167969 207.039062 260.773438 207.039062 260.773438 C 207.039062 260.773438 212.96875 263.539062 206.414062 263.84375 C 199.859375 264.148438 202.929688 260.433594 202.929688 260.433594 C 208.011719 254.871094 215.082031 258.957031 215.082031 258.957031 C 225.914062 264.371094 228.0625 276.039062 228.0625 276.039062 C 228.109375 268.777344 223.277344 257.996094 223.277344 257.996094 C 224.386719 260.359375 224.207031 264.917969 224.207031 264.917969 C 222.21875 260.113281 213.71875 254.957031 213.710938 254.039062 C 213.703125 253.117188 215.191406 252.25 215.191406 252.25 C 212.886719 252.144531 209.929688 254.601562 211.105469 252.027344 C 212.28125 249.453125 217.695312 246.390625 223.328125 244.972656 C 228.957031 243.550781 235.8125 247.359375 235.8125 247.359375 C 233.3125 243.046875 237.21875 240.738281 241.839844 241.023438 C 246.457031 241.308594 249.375 249.03125 249.375 249.03125 C 249.375 249.03125 248.242188 246.3125 248.3125 244.058594 C 248.386719 241.800781 251.324219 242.3125 254.3125 248.660156 C 257.304688 255.007812 255.011719 258.507812 255.011719 258.507812 C 257.929688 255.375 255.410156 250.96875 256.570312 250.734375 C 257.355469 250.578125 258.75 250.859375 260.449219 251.511719 C 264.574219 260.585938 270.113281 265.746094 276.402344 266.914062 C 277.078125 269.714844 276.757812 272.71875 274.886719 275.796875 C 277.273438 274.703125 278.734375 271.257812 278.734375 271.257812 L 276.984375 273.40625 C 277.773438 271.417969 277.878906 269.261719 277.476562 267.074219 C 278.632812 267.203125 279.816406 267.203125 281.015625 267.070312 C 279.707031 266.824219 278.445312 266.449219 277.226562 265.960938 C 275.285156 258.464844 267.777344 250.878906 261.816406 248.542969 C 262.964844 249.84375 263.4375 250.988281 261.472656 250.476562 C 259.871094 247.605469 258.558594 244.605469 257.546875 241.695312 L 256.300781 237.574219 C 256.300781 237.574219 256.527344 242.898438 256.382812 245.128906 L 257.09375 242.167969 C 257.878906 244.953125 258.753906 247.511719 259.71875 249.835938 C 256.996094 248.566406 254.964844 246.234375 254.398438 244.71875 C 253.777344 243.070312 252.390625 235.21875 252.390625 235.21875 C 250.085938 229.789062 246.003906 229.136719 246.003906 229.136719 L 248.859375 228.820312 L 243.09375 228.890625 C 243.09375 228.890625 248.691406 229.382812 249.414062 233.496094 C 250.136719 237.609375 245.363281 237.894531 243.554688 237.417969 C 241.746094 236.945312 240.566406 237.386719 240.566406 237.386719 C 243.335938 239.363281 238.679688 240.191406 235.71875 238.507812 C 228.515625 234.414062 222.765625 217.925781 204.625 213.125 L 212.117188 219.78125 L 208.472656 215.351562 C 242.363281 230.378906 217.628906 253.238281 213.402344 243.328125 C 212.609375 246.574219 212.574219 251.769531 205.175781 252.375 C 202.785156 252.574219 203.59375 248.226562 203.59375 248.226562 C 204.609375 243.875 208.015625 242.339844 208.015625 242.339844 C 204.773438 242.746094 202.847656 244.683594 201.664062 246.882812 C 202.253906 244.316406 202.921875 241.90625 204.304688 240.761719 C 206.679688 238.796875 212.03125 238.859375 212.03125 238.859375 C 212.03125 238.859375 207.527344 236.796875 209.5625 235.121094 C 211.59375 233.445312 213.285156 232.777344 219.367188 233.347656 C 219.367188 233.347656 210.675781 228.898438 200.066406 239.730469 C 200.066406 239.730469 202.613281 238.175781 202.972656 239.832031 C 203.328125 241.484375 198.753906 246.527344 197.230469 246.898438 C 197.230469 246.898438 200 247.78125 199.609375 249.699219 C 198.714844 254.085938 191.871094 255.664062 188.507812 264.046875 C 187.367188 266.894531 186.925781 267.5625 185.707031 264.371094 C 182.394531 255.703125 175.382812 254.140625 174.480469 249.699219 C 174.089844 247.777344 176.855469 246.898438 176.855469 246.898438 C 175.332031 246.527344 170.761719 241.484375 171.117188 239.832031 C 171.472656 238.175781 174.023438 239.730469 174.023438 239.730469 C 163.410156 228.898438 154.71875 233.347656 154.71875 233.347656 C 160.800781 232.777344 162.496094 233.445312 164.527344 235.121094 C 166.558594 236.796875 162.054688 238.859375 162.054688 238.859375 C 162.054688 238.859375 167.410156 238.796875 169.785156 240.761719 C 171.164062 241.902344 171.832031 244.316406 172.421875 246.882812 C 171.238281 244.683594 169.3125 242.746094 166.070312 242.339844 C 166.070312 242.339844 169.476562 243.875 170.492188 248.226562 C 170.492188 248.226562 171.304688 252.570312 168.914062 252.375 C 161.511719 251.769531 161.476562 246.570312 160.6875 243.328125 C 156.460938 253.238281 131.726562 230.378906 165.613281 215.351562 L 161.96875 219.78125 L 169.460938 213.125 C 151.320312 217.925781 145.574219 234.414062 138.367188 238.507812 C 135.40625 240.191406 130.75 239.359375 133.523438 237.386719 C 133.523438 237.386719 132.339844 236.941406 130.53125 237.417969 C 128.722656 237.890625 123.949219 237.609375 124.671875 233.496094 C 125.394531 229.378906 130.992188 228.890625 130.992188 228.890625 L 125.226562 228.820312 L 128.082031 229.132812 C 128.082031 229.132812 124 229.789062 121.695312 235.21875 C 121.695312 235.21875 120.308594 243.070312 119.6875 244.71875 C 119.121094 246.234375 117.089844 248.5625 114.367188 249.835938 C 115.332031 247.511719 116.210938 244.953125 116.992188 242.164062 L 117.703125 245.128906 C 117.5625 242.898438 117.789062 237.570312 117.789062 237.570312 L 116.539062 241.695312 C 115.527344 244.605469 114.214844 247.601562 112.613281 250.476562 C 110.648438 250.988281 111.121094 249.84375 112.269531 248.542969 C 106.308594 250.878906 98.804688 258.464844 96.859375 265.960938 C 95.640625 266.449219 94.375 266.824219 93.070312 267.066406 C 94.269531 267.203125 95.453125 267.203125 96.609375 267.074219 C 96.207031 269.257812 96.3125 271.414062 97.101562 273.40625 L 95.351562 271.253906 C 95.351562 271.253906 96.816406 274.703125 99.199219 275.796875 C 97.328125 272.714844 97.007812 269.710938 97.683594 266.914062 C 103.972656 265.746094 109.511719 260.582031 113.636719 251.511719 C 115.339844 250.859375 116.734375 250.578125 117.519531 250.734375 C 118.679688 250.964844 116.160156 255.375 119.078125 258.507812 C 119.078125 258.507812 116.785156 255.007812 119.777344 248.660156 C 122.765625 242.3125 125.703125 241.800781 125.777344 244.058594 C 125.847656 246.3125 124.714844 249.03125 124.714844 249.03125 C 124.714844 249.03125 127.632812 241.308594 132.25 241.023438 C 136.871094 240.734375 140.777344 243.042969 138.277344 247.359375 C 138.277344 247.359375 145.132812 243.550781 150.761719 244.96875 C 156.394531 246.390625 161.808594 249.449219 162.984375 252.027344 C 164.160156 254.601562 161.203125 252.144531 158.898438 252.25 C 158.898438 252.25 160.386719 253.117188 160.378906 254.039062 C 160.371094 254.957031 151.871094 260.109375 149.882812 264.917969 C 149.882812 264.917969 149.703125 260.359375 150.8125 257.996094 C 150.8125 257.996094 145.980469 268.777344 146.027344 276.035156 C 146.027344 276.035156 148.179688 264.367188 159.007812 258.957031 C 159.007812 258.957031 166.078125 254.867188 171.160156 260.433594 C 171.160156 260.433594 174.230469 264.144531 167.675781 263.84375 C 161.121094 263.539062 167.054688 260.773438 167.054688 260.773438 C 167.054688 260.773438 160.371094 261.167969 161.679688 269.453125 C 161.679688 269.453125 162.738281 265.359375 164.921875 264.59375 C 167.101562 263.824219 172.425781 264.066406 173.203125 267.734375 C 173.203125 267.734375 173.363281 268.472656 172.589844 268.753906 C 172.589844 268.753906 174.074219 269.230469 174.566406 270.613281 C 175.058594 271.992188 175.085938 273.488281 175.167969 274.382812 C 175.167969 274.382812 174.902344 272.535156 172.027344 271.375 C 173.410156 271.875 175.863281 277.167969 177.0625 281.015625 Z M 261.988281 248.015625 C 266.296875 249.019531 267.066406 248.035156 267.066406 248.035156 C 267.097656 249.636719 270.695312 252.359375 272.183594 255.34375 C 267.242188 250.167969 262.125 247.988281 261.988281 248.015625 Z M 275.933594 265.394531 C 270.511719 262.804688 266.035156 257.972656 262.644531 252.476562 C 267.582031 254.910156 273.769531 259.636719 275.933594 265.394531 Z M 229.550781 238.949219 C 229.625 239.597656 228.921875 240.375 228.921875 240.375 C 228.921875 240.375 231.421875 239.359375 233.171875 240.285156 C 234.921875 241.210938 233.378906 243.652344 230.480469 242.695312 C 227.585938 241.738281 223.144531 243.878906 223.144531 243.878906 C 224.460938 242.839844 226.824219 237.316406 229 238.570312 C 229.667969 238.957031 228.144531 240.65625 227.800781 240.910156 C 228.976562 240.144531 229.414062 239.460938 229.550781 238.949219 Z M 112.097656 248.015625 C 111.964844 247.988281 106.84375 250.167969 101.902344 255.34375 C 103.394531 252.359375 106.988281 249.636719 107.019531 248.035156 C 107.019531 248.035156 107.792969 249.019531 112.097656 248.015625 Z M 98.152344 265.394531 C 100.320312 259.636719 106.503906 254.910156 111.441406 252.476562 C 108.050781 257.972656 103.578125 262.804688 98.152344 265.394531 Z M 144.535156 238.949219 C 144.671875 239.460938 145.109375 240.144531 146.285156 240.910156 C 145.941406 240.65625 144.417969 238.957031 145.085938 238.574219 C 147.261719 237.316406 149.625 242.839844 150.941406 243.882812 C 150.941406 243.882812 146.5 241.738281 143.605469 242.695312 C 140.707031 243.652344 139.167969 241.210938 140.914062 240.285156 C 142.664062 239.359375 145.164062 240.375 145.164062 240.375 C 145.164062 240.375 144.460938 239.597656 144.535156 238.949219 Z M 144.535156 238.949219 " fill-opacity="1" fill-rule="evenodd"/></g><g clip-path="url(#fbb2a43008)"><path fill="#ff3131" d="M 285.363281 249.992188 C 285.363281 249.992188 285.695312 242.050781 284.792969 239.601562 C 283.890625 237.152344 287.035156 235.886719 289.320312 237.535156 C 291.605469 239.179688 289.582031 241.8125 289.582031 241.8125 C 289.582031 241.8125 292.292969 239.429688 290.382812 236.316406 C 288.472656 233.203125 286.765625 234.453125 285.78125 231.261719 C 284.792969 228.074219 282.289062 224.84375 278.089844 222.496094 C 278.089844 222.496094 283.09375 225.578125 284.792969 231.730469 C 284.792969 231.730469 285.625 233.414062 284.574219 234.917969 C 283.519531 236.421875 283.46875 237.097656 282.839844 237.324219 C 282.210938 237.550781 281.851562 236.457031 281.441406 236.039062 C 281.03125 235.617188 277.59375 233.203125 278.261719 230.988281 C 278.929688 228.773438 281.417969 231.683594 281.386719 234.265625 C 281.386719 234.265625 282.054688 232.824219 281.34375 231.101562 C 280.632812 229.378906 280.519531 228.246094 280.265625 227.132812 C 280.011719 226.019531 278.4375 224.636719 277.484375 223.765625 C 277.484375 223.765625 279.199219 225.558594 279.089844 226.875 C 278.980469 228.1875 277.570312 228.0625 276.898438 226.257812 C 276.230469 224.453125 270.125 214.835938 258.394531 215.839844 C 260.464844 213.855469 264.578125 213.15625 264.578125 213.15625 C 259.625 213.078125 255.410156 216.597656 255.410156 216.597656 C 259.449219 215.566406 264.738281 216.136719 267.40625 219.597656 C 270.589844 220.398438 272.964844 223.6875 273.289062 224.15625 C 273.164062 223.972656 273.03125 223.789062 272.890625 223.601562 L 273.316406 224.195312 C 275.5625 227.5 275.511719 229.90625 275.511719 229.90625 C 275.511719 229.90625 276.347656 233.515625 271.066406 228.933594 C 271.066406 228.933594 271.636719 230.117188 272.804688 231.207031 C 273.972656 232.296875 278.421875 235.558594 277.117188 236.144531 C 273.242188 237.886719 268.253906 232.476562 267.738281 228.789062 C 265.621094 226.898438 263.933594 223.863281 264.328125 220.914062 C 264.328125 220.914062 263.285156 224.035156 265.144531 228.164062 C 267.003906 232.292969 269.441406 237.554688 275.835938 241.539062 C 275.835938 241.539062 273.628906 238.835938 275.019531 238.289062 C 276.40625 237.738281 280.082031 241.625 281.453125 244.410156 C 281.453125 244.410156 279.46875 239.976562 279.894531 239.042969 C 280.320312 238.113281 284.851562 238.402344 285.363281 249.992188 Z M 285.363281 249.992188 " fill-opacity="1" fill-rule="evenodd"/></g><g clip-path="url(#a602dec1c9)"><path fill="#ff3131" d="M 90.542969 249.992188 C 90.542969 249.992188 90.214844 242.050781 91.113281 239.601562 C 92.015625 237.152344 88.871094 235.886719 86.585938 237.535156 C 84.304688 239.179688 86.324219 241.8125 86.324219 241.8125 C 86.324219 241.8125 83.613281 239.429688 85.523438 236.316406 C 87.433594 233.203125 89.140625 234.453125 90.125 231.261719 C 91.113281 228.074219 93.617188 224.84375 97.816406 222.496094 C 97.816406 222.496094 92.816406 225.578125 91.113281 231.730469 C 91.113281 231.730469 90.28125 233.414062 91.335938 234.917969 C 92.386719 236.421875 92.4375 237.097656 93.070312 237.324219 C 93.699219 237.550781 94.054688 236.457031 94.464844 236.039062 C 94.875 235.617188 98.3125 233.203125 97.644531 230.988281 C 96.976562 228.773438 94.488281 231.683594 94.519531 234.265625 C 94.519531 234.265625 93.855469 232.824219 94.566406 231.101562 C 95.277344 229.378906 95.390625 228.246094 95.640625 227.132812 C 95.894531 226.019531 97.46875 224.636719 98.421875 223.765625 C 98.421875 223.765625 96.707031 225.558594 96.820312 226.875 C 96.929688 228.1875 98.339844 228.0625 99.007812 226.257812 C 99.675781 224.453125 105.78125 214.835938 117.511719 215.839844 C 115.441406 213.855469 111.328125 213.15625 111.328125 213.15625 C 116.28125 213.078125 120.496094 216.597656 120.496094 216.597656 C 116.457031 215.566406 111.171875 216.136719 108.503906 219.597656 C 105.316406 220.398438 102.945312 223.6875 102.621094 224.15625 C 102.746094 223.972656 102.878906 223.789062 103.015625 223.601562 L 102.59375 224.195312 C 100.34375 227.5 100.398438 229.90625 100.398438 229.90625 C 100.398438 229.90625 99.558594 233.515625 104.839844 228.933594 C 104.839844 228.933594 104.269531 230.117188 103.101562 231.207031 C 101.933594 232.296875 97.484375 235.558594 98.789062 236.144531 C 102.664062 237.886719 107.652344 232.476562 108.167969 228.789062 C 110.285156 226.898438 111.976562 223.863281 111.582031 220.914062 C 111.582031 220.914062 112.625 224.035156 110.765625 228.164062 C 108.90625 232.292969 106.464844 237.554688 100.074219 241.539062 C 100.074219 241.539062 102.277344 238.835938 100.890625 238.289062 C 99.503906 237.738281 95.828125 241.625 94.457031 244.410156 C 94.457031 244.410156 96.4375 239.976562 96.011719 239.042969 C 95.589844 238.113281 91.054688 238.402344 90.542969 249.992188 Z M 90.542969 249.992188 " fill-opacity="1" fill-rule="evenodd"/></g><path stroke-linecap="butt" transform="matrix(0.745081, -0.0857578, 0.0857578, 0.745081, 105.225458, 147.01751)" fill="none" stroke-linejoin="miter" d="M 15.364883 22.983233 C 14.819623 22.983386 14.327372 23.251778 13.88694 23.798754 L 13.8903 57.567497 C 13.889353 59.853213 14.023005 61.698306 14.287273 63.091829 C 14.568254 64.476792 15.170815 65.84634 16.105305 67.201666 C 17.90043 69.825176 22.011746 71.137218 28.439254 71.137792 L 28.439127 73.507487 C 28.171671 73.508159 26.155613 74.261745 22.39155 75.76307 C 18.639026 77.255237 16.35153 77.998551 15.528465 77.998187 C 12.796988 77.998361 10.20855 76.436939 7.763745 73.308749 C 5.314958 70.169615 4.091963 66.857004 4.089586 63.370323 L 4.092005 22.582244 C 4.089508 22.193996 7.212236 20.844291 13.449842 18.531939 C 19.688044 16.214414 23.270717 15.059201 24.188108 15.059937 C 24.518845 15.056063 24.904532 15.850164 25.346361 17.431892 C 25.78242 19.018199 26.28623 20.926866 26.862966 23.158491 C 27.433931 25.394694 28.030204 27.046626 28.657554 28.109707 C 29.280921 29.161844 30.468304 29.686471 32.20876 29.687572 L 32.209222 31.323354 C 31.01418 31.86736 28.983458 32.839452 26.122826 34.235051 C 23.263385 35.620303 21.720931 36.31306 21.490289 36.312727 C 20.682747 36.314149 19.643538 34.092207 18.377836 29.647496 C 17.127657 25.204572 16.125263 22.981625 15.364883 22.983233 Z M 15.364883 22.983233 " stroke="#000000" stroke-width="21.458666" stroke-opacity="1" stroke-miterlimit="4"/><path stroke-linecap="butt" transform="matrix(0.748164, -0.0524395, 0.0524395, 0.748164, 131.465283, 144.016222)" fill="none" stroke-linejoin="miter" d="M 21.2546 69.499155 L 21.253479 30.184106 C 21.254129 28.163582 21.031783 26.717413 20.596104 25.856719 C 20.156687 24.974879 19.258092 24.535975 17.90032 24.540009 L 17.900653 22.002572 L 34.661839 14.980233 L 35.961495 17.593124 C 34.765879 17.59286 33.619453 18.306115 32.527776 19.728057 C 31.54511 21.084545 31.050248 23.153967 31.053581 25.937053 L 31.054191 64.588985 C 31.053613 66.385007 31.430103 67.941182 32.188856 69.257872 C 32.958729 70.5649 33.920691 71.217089 35.064351 71.213712 L 35.063773 73.009734 C 34.689424 73.061812 31.721899 74.728194 26.161926 77.99849 C 25.777719 77.893244 25.312933 77.745803 24.767201 77.561361 C 24.222563 77.361332 23.492314 76.829806 22.592407 75.96268 C 21.698424 75.085526 21.252524 74.072704 21.254342 72.929408 C 20.91947 73.088675 19.995434 73.608673 18.477038 74.489038 C 14.44794 76.775421 12.044498 77.917461 11.276741 77.921081 C 9.53304 77.918949 7.894339 76.791195 6.366564 74.527793 C 4.84918 72.265119 4.088992 70.149498 4.091196 68.181293 L 4.090653 27.070222 C 4.091495 24.078584 2.753627 22.308835 0.0818801 21.766535 L 0.0772626 19.970149 L 9.000256 14.977653 C 10.19801 15.468851 11.310839 16.277806 12.334275 17.393762 C 13.368102 18.510446 13.889752 19.559904 13.888467 20.546604 L 13.890198 60.597873 C 13.889575 64.033321 14.394015 66.371188 15.407983 67.622229 C 16.416755 68.872906 18.367238 69.500401 21.2546 69.499155 Z M 21.2546 69.499155 " stroke="#000000" stroke-width="21.458666" stroke-opacity="1" stroke-miterlimit="4"/><path stroke-linecap="butt" transform="matrix(0.749786, -0.0178936, 0.0178936, 0.749786, 159.45909, 142.091753)" fill="none" stroke-linejoin="miter" d="M 17.082095 23.06261 C 16.097503 23.059952 15.035281 23.472226 13.890222 24.29931 L 13.891973 50.858996 C 15.314189 50.861679 16.898215 50.414968 18.638718 49.523948 C 20.379595 48.617308 21.2513 47.674295 21.253958 46.689703 L 21.251088 29.127343 C 21.253792 25.08459 19.864168 23.061276 17.082095 23.06261 Z M 4.091749 69.656574 L 4.091616 27.311182 C 4.092544 23.997761 2.975529 22.121618 0.740571 21.682754 L 0.736456 19.890479 L 9.001362 15.216543 C 10.079653 15.659061 11.160032 16.450688 12.252913 17.59167 C 13.34567 18.737859 13.888737 19.777153 13.887446 20.70447 C 19.887809 17.049712 23.323073 15.219692 24.187907 15.219492 C 25.063155 15.21954 26.443158 16.336116 28.317503 18.56897 C 30.207345 20.807404 31.149179 22.820031 31.15317 24.617513 L 31.152021 47.587567 C 31.151997 48.025191 28.180415 49.418233 22.232318 51.756154 C 24.745027 60.203924 27.688073 65.900762 31.051169 68.841212 C 32.579064 70.091562 34.137492 70.717463 35.721369 70.713584 L 35.719993 73.172585 C 30.652178 76.391134 27.440945 78.002478 26.081211 78.001287 C 24.27344 77.999823 21.994015 74.621562 19.237854 67.861172 C 16.49719 61.106361 15.014971 56.632224 14.785618 54.454257 L 13.888661 54.708972 L 13.888563 65.409933 C 13.887212 67.431309 14.107927 68.879696 14.545378 69.760175 C 14.988409 70.625158 15.884709 71.052914 17.244442 71.054105 L 17.241202 73.591208 L 0.501137 80.615696 L -0.817045 78.000168 C 0.381276 77.997507 1.523352 77.295388 2.614639 75.883523 C 3.600671 74.516033 4.093082 72.438648 4.091749 69.656574 Z M 4.091749 69.656574 " stroke="#000000" stroke-width="21.458666" stroke-opacity="1" stroke-miterlimit="4"/><path stroke-linecap="butt" transform="matrix(0.749819, 0.0164897, -0.0164897, 0.749819, 187.62449, 141.463145)" fill="none" stroke-linejoin="miter" d="M 9.081886 51.919307 C 7.711738 51.918181 6.532522 50.886567 5.549444 48.824349 C 4.576436 46.746281 4.093575 44.214619 4.090215 41.219177 L 4.091473 24.220248 C 4.089399 23.178375 6.951951 21.396257 12.673807 18.868802 C 18.395433 16.330933 21.686002 15.060362 22.55072 15.056975 C 23.217569 15.057938 24.147991 16.14712 25.3421 18.329727 C 25.609385 18.876066 26.000784 19.61764 26.52139 20.549127 C 27.041652 21.464993 27.464637 22.221502 27.800874 22.82363 C 28.501787 24.136662 29.401991 24.799321 30.490727 24.796217 L 30.494983 26.411097 C 29.612704 26.800381 28.442722 27.373118 26.97983 28.129422 C 23.547134 30.043899 21.692741 31.001568 21.411444 31.002545 C 20.598797 31.004787 19.578703 29.391409 18.340978 26.173052 C 17.113667 22.954466 16.12493 21.345607 15.364353 21.346705 C 14.379644 21.342312 13.8871 22.160631 13.891929 23.801546 L 13.891889 42.040332 C 13.887799 44.223241 14.380597 45.311628 15.365193 45.310813 C 15.578797 45.311325 17.266853 44.607374 20.434567 43.198846 C 23.601938 41.774697 25.508576 41.060729 26.159804 41.062036 C 27.467353 41.059329 28.626199 42.11223 29.636228 44.215532 C 30.645914 46.303213 31.152925 48.985422 31.151939 52.257068 L 31.149085 69.657171 C 31.151044 70.693837 28.033461 72.486772 21.790897 75.025678 C 15.553312 77.554056 11.965711 78.82074 11.033187 78.820409 C 10.647634 78.818469 10.210348 78.359222 9.716121 77.442783 C 9.237172 76.51038 8.598515 75.18556 7.805357 73.468208 C 7.01752 71.755949 6.313973 70.323154 5.689738 69.180352 C 5.060296 68.037665 4.203695 67.46261 3.114959 67.465714 L 3.115337 65.824684 C 3.976903 65.441066 5.12085 64.868901 6.547178 64.108191 C 10.031944 62.192569 11.907165 61.234442 12.172955 61.239016 C 12.996017 61.236544 14.157449 63.117714 15.646838 66.882753 C 17.146641 70.647563 18.282153 72.534512 19.037522 72.533529 C 19.584494 72.531919 20.100621 72.312185 20.596317 71.874097 C 21.086806 71.436124 21.334106 70.836792 21.333008 70.076216 L 21.334705 51.675897 C 21.332955 49.227426 20.654932 48.007664 19.295198 48.006309 C 18.857575 48.005514 17.137131 48.658081 14.128661 49.964125 C 11.135697 51.264618 9.451703 51.916384 9.081886 51.919307 Z M 9.081886 51.919307 " stroke="#000000" stroke-width="21.458666" stroke-opacity="1" stroke-miterlimit="4"/><path stroke-linecap="butt" transform="matrix(0.74828, 0.0507583, -0.0507583, 0.74828, 215.356529, 142.107941)" fill="none" stroke-linejoin="miter" d="M 21.250851 69.499097 L 21.25162 30.184944 C 21.25551 28.164423 21.032099 26.717893 20.592487 25.855042 C 20.157014 24.976249 19.255378 24.53626 17.898323 24.539569 L 17.898495 22.00249 L 34.664573 14.976691 L 35.959189 17.59299 C 34.763576 17.590567 33.621802 18.304895 32.527966 19.725931 C 31.544927 21.087249 31.053633 23.156493 31.054087 25.933663 L 31.050476 64.59025 C 31.052215 66.385917 31.429231 67.942094 32.186721 69.25843 C 32.959096 70.563317 33.916755 71.213537 35.065249 71.213935 L 35.061791 73.009954 C 34.689766 73.066512 31.722591 74.729469 26.160267 77.998828 C 25.777314 77.894297 25.313244 77.748286 24.768055 77.560795 C 24.222161 77.362911 23.496758 76.827444 22.592552 75.964785 C 21.697682 75.085833 21.253396 74.07713 21.253795 72.928636 C 20.92035 73.092203 19.99488 73.609147 18.478091 74.489861 C 14.446644 76.778364 12.044626 77.922717 11.277231 77.922569 C 9.533529 77.920783 7.895915 76.789436 6.364391 74.528527 C 4.848455 72.26656 4.088998 70.151651 4.091216 68.183447 L 4.090246 27.073628 C 4.090577 24.077152 2.754332 22.309366 0.081158 21.765074 L 0.0794191 19.969408 L 9.001729 14.979124 C 10.199298 15.472122 11.308188 16.273914 12.334298 17.394538 C 13.370449 18.509262 13.890657 19.559797 13.889724 20.546498 L 13.891888 60.596514 C 13.889988 64.031602 14.393332 66.372696 15.407469 67.624641 C 16.416058 68.871741 18.363852 69.49656 21.250851 69.499097 Z M 21.250851 69.499097 " stroke="#000000" stroke-width="21.458666" stroke-opacity="1" stroke-miterlimit="4"/><path stroke-linecap="butt" transform="matrix(0.745177, 0.0849207, -0.0849207, 0.745177, 243.335261, 144.047729)" fill="none" stroke-linejoin="miter" d="M 9.078617 51.919386 C 7.710292 51.918059 6.534055 50.88837 5.549317 48.825143 C 4.578923 46.749796 4.090954 44.215836 4.090584 41.22267 L 4.0922 24.217293 C 4.089281 23.179701 6.952618 21.396106 12.671861 18.867686 C 18.3951 16.328327 21.683776 15.057158 22.548829 15.058175 C 23.21488 15.060903 24.146263 16.149948 25.343568 18.330486 C 25.610257 18.876719 26.003441 19.612976 26.523712 20.544432 C 27.042803 21.465539 27.464811 22.224722 27.800085 22.820801 C 28.506075 24.139972 29.404035 24.797737 30.494555 24.799269 L 30.495072 26.41376 C 29.616145 26.796994 28.44442 27.370856 26.979307 28.130172 C 23.54923 30.0465 21.692406 31.002475 21.414601 31.002681 C 20.601886 31.000942 19.574717 29.393366 18.337679 26.174189 C 17.116165 22.953242 16.125809 21.346713 15.365432 21.344251 C 14.380178 21.346448 13.891281 22.16226 13.888982 23.798039 L 13.891996 42.040011 C 13.88893 44.221051 14.380319 45.31306 15.365573 45.310863 C 15.58069 45.312559 17.266817 44.606686 20.434895 43.197242 C 23.601203 41.772273 25.512207 41.061742 26.162144 41.061063 C 27.467191 41.059117 28.625087 42.111864 29.635243 44.214132 C 30.64363 46.300874 31.153876 48.984316 31.149277 52.255875 L 31.151082 69.659258 C 31.154001 70.69685 28.028974 72.484058 21.792114 75.024287 C 15.554075 77.554166 11.965715 78.817551 11.037974 78.818435 C 10.650318 78.820677 10.209586 78.357182 9.717549 77.443477 C 9.239266 76.512478 8.600549 75.18564 7.801987 73.468139 C 7.019539 71.754044 6.311514 70.325022 5.688263 69.179894 C 5.059836 68.035355 4.202951 67.462024 3.11302 67.465666 L 3.11473 65.824712 C 3.978132 65.443247 5.123393 64.867159 6.547107 64.112561 C 10.029523 62.19551 11.907046 61.237177 12.174501 61.23815 C 12.997566 61.23871 14.155492 63.119697 15.643694 66.886876 C 17.147421 70.652286 18.278884 72.531048 19.039261 72.533509 C 19.584521 72.534276 20.104422 72.312524 20.594381 71.874019 C 21.089514 71.434924 21.330549 70.836073 21.333011 70.075696 L 21.333005 51.67612 C 21.331869 49.228214 20.652608 48.005596 19.295223 48.008265 C 18.859814 48.005464 17.13615 48.657952 14.128817 49.959963 C 11.137598 51.26538 9.450748 51.918914 9.078617 51.919386 Z M 9.078617 51.919386 " stroke="#000000" stroke-width="21.458666" stroke-opacity="1" stroke-miterlimit="4"/><g fill="#ffffff" fill-opacity="1"><g transform="translate(111.914568, 205.13382)"><g><path d="M 6.734375 -42.3125 C 6.316406 -42.269531 5.976562 -42.023438 5.71875 -41.578125 L 8.609375 -16.421875 C 8.804688 -14.710938 9.0625 -13.351562 9.375 -12.34375 C 9.695312 -11.332031 10.265625 -10.359375 11.078125 -9.421875 C 12.640625 -7.628906 15.816406 -7.007812 20.609375 -7.5625 L 20.8125 -5.796875 C 20.601562 -5.773438 19.160156 -5.039062 16.484375 -3.59375 C 13.816406 -2.15625 12.179688 -1.398438 11.578125 -1.328125 C 9.535156 -1.097656 7.46875 -2.039062 5.375 -4.15625 C 3.28125 -6.28125 2.085938 -8.640625 1.796875 -11.234375 L -1.703125 -41.640625 C -1.734375 -41.921875 0.472656 -43.191406 4.921875 -45.453125 C 9.378906 -47.710938 11.953125 -48.882812 12.640625 -48.96875 C 12.878906 -48.988281 13.226562 -48.429688 13.6875 -47.296875 C 14.15625 -46.171875 14.691406 -44.796875 15.296875 -43.171875 C 15.910156 -41.554688 16.5 -40.378906 17.0625 -39.640625 C 17.625 -38.898438 18.554688 -38.609375 19.859375 -38.765625 L 20 -37.546875 C 19.144531 -37.035156 17.710938 -36.140625 15.703125 -34.859375 C 13.691406 -33.578125 12.601562 -32.925781 12.4375 -32.90625 C 11.832031 -32.832031 10.875 -34.398438 9.5625 -37.609375 C 8.25 -40.816406 7.304688 -42.382812 6.734375 -42.3125 Z M 6.734375 -42.3125 "/></g></g></g><g fill="#ffffff" fill-opacity="1"><g transform="translate(135.555563, 202.373047)"><g><path d="M 15.4375 -7.46875 L 13.375 -36.890625 C 13.269531 -38.398438 13.035156 -39.46875 12.671875 -40.09375 C 12.304688 -40.726562 11.613281 -41.007812 10.59375 -40.9375 L 10.453125 -42.828125 L 22.640625 -48.96875 L 23.75 -47.09375 C 22.84375 -47.03125 22.019531 -46.4375 21.28125 -45.3125 C 20.613281 -44.238281 20.351562 -42.664062 20.5 -40.59375 L 22.53125 -11.65625 C 22.625 -10.3125 22.988281 -9.171875 23.625 -8.234375 C 24.269531 -7.296875 25.019531 -6.859375 25.875 -6.921875 L 25.96875 -5.5625 C 25.695312 -5.5 23.566406 -4.101562 19.578125 -1.375 C 19.273438 -1.4375 18.914062 -1.519531 18.5 -1.625 C 18.09375 -1.738281 17.523438 -2.097656 16.796875 -2.703125 C 16.078125 -3.316406 15.6875 -4.046875 15.625 -4.890625 C 15.40625 -4.765625 14.742188 -4.335938 13.640625 -3.609375 C 10.742188 -1.679688 9.015625 -0.695312 8.453125 -0.65625 C 7.140625 -0.5625 5.851562 -1.320312 4.59375 -2.9375 C 3.332031 -4.550781 2.648438 -6.09375 2.546875 -7.5625 L 0.390625 -38.328125 C 0.234375 -40.554688 -0.859375 -41.804688 -2.890625 -42.078125 L -2.984375 -43.421875 L 3.4375 -47.625 C 4.351562 -47.320312 5.222656 -46.78125 6.046875 -46 C 6.878906 -45.21875 7.320312 -44.460938 7.375 -43.734375 L 9.484375 -13.765625 C 9.660156 -11.203125 10.15625 -9.472656 10.96875 -8.578125 C 11.789062 -7.691406 13.28125 -7.320312 15.4375 -7.46875 Z M 15.4375 -7.46875 "/></g></g></g><g fill="#ffffff" fill-opacity="1"><g transform="translate(160.854794, 200.575098)"><g><path d="M 11.828125 -41.5 C 11.085938 -41.476562 10.300781 -41.148438 9.46875 -40.515625 L 9.9375 -20.609375 C 11 -20.628906 12.175781 -20.988281 13.46875 -21.6875 C 14.757812 -22.394531 15.394531 -23.117188 15.375 -23.859375 L 15.0625 -37.03125 C 14.988281 -40.050781 13.910156 -41.539062 11.828125 -41.5 Z M 2.90625 -6.328125 L 2.15625 -38.078125 C 2.09375 -40.566406 1.222656 -41.957031 -0.453125 -42.25 L -0.5 -43.59375 L 5.625 -47.234375 C 6.445312 -46.921875 7.273438 -46.34375 8.109375 -45.5 C 8.953125 -44.664062 9.378906 -43.90625 9.390625 -43.21875 C 13.828125 -46.0625 16.367188 -47.488281 17.015625 -47.5 C 17.671875 -47.519531 18.722656 -46.707031 20.171875 -45.0625 C 21.628906 -43.425781 22.375 -41.929688 22.40625 -40.578125 L 22.8125 -23.375 C 22.820312 -23.039062 20.617188 -21.941406 16.203125 -20.078125 C 18.234375 -13.785156 20.546875 -9.566406 23.140625 -7.421875 C 24.304688 -6.503906 25.484375 -6.0625 26.671875 -6.09375 L 26.703125 -4.265625 C 22.960938 -1.753906 20.582031 -0.488281 19.5625 -0.46875 C 18.207031 -0.4375 16.4375 -2.925781 14.25 -7.9375 C 12.070312 -12.957031 10.878906 -16.285156 10.671875 -17.921875 L 10 -17.71875 L 10.203125 -9.6875 C 10.234375 -8.175781 10.421875 -7.097656 10.765625 -6.453125 C 11.109375 -5.804688 11.789062 -5.5 12.8125 -5.53125 L 12.859375 -3.625 L 0.421875 1.953125 L -0.609375 0.015625 C 0.285156 -0.00390625 1.132812 -0.554688 1.9375 -1.640625 C 2.632812 -2.679688 2.957031 -4.242188 2.90625 -6.328125 Z M 2.90625 -6.328125 "/></g></g></g><g fill="#ffffff" fill-opacity="1"><g transform="translate(186.338295, 199.949002)"><g><path d="M 7.25 -19.40625 C 6.21875 -19.4375 5.347656 -20.234375 4.640625 -21.796875 C 3.941406 -23.367188 3.617188 -25.28125 3.671875 -27.53125 L 3.953125 -40.265625 C 3.960938 -41.046875 6.132812 -42.335938 10.46875 -44.140625 C 14.800781 -45.941406 17.296875 -46.832031 17.953125 -46.8125 C 18.441406 -46.800781 19.117188 -45.972656 19.984375 -44.328125 C 20.179688 -43.910156 20.46875 -43.347656 20.84375 -42.640625 C 21.21875 -41.941406 21.519531 -41.367188 21.75 -40.921875 C 22.257812 -39.929688 22.925781 -39.425781 23.75 -39.40625 L 23.71875 -38.171875 C 23.0625 -37.898438 22.175781 -37.492188 21.0625 -36.953125 C 18.457031 -35.566406 17.050781 -34.875 16.84375 -34.875 C 16.226562 -34.894531 15.488281 -36.117188 14.625 -38.546875 C 13.757812 -40.984375 13.039062 -42.207031 12.46875 -42.21875 C 11.726562 -42.226562 11.34375 -41.625 11.3125 -40.40625 L 11.015625 -26.75 C 10.972656 -25.113281 11.320312 -24.289062 12.0625 -24.28125 C 12.21875 -24.269531 13.492188 -24.769531 15.890625 -25.78125 C 18.296875 -26.789062 19.742188 -27.289062 20.234375 -27.28125 C 21.210938 -27.257812 22.0625 -26.453125 22.78125 -24.859375 C 23.5 -23.265625 23.832031 -21.242188 23.78125 -18.796875 L 23.5 -5.734375 C 23.476562 -4.960938 21.101562 -3.675781 16.375 -1.875 C 11.65625 -0.0820312 8.953125 0.804688 8.265625 0.796875 C 7.972656 0.785156 7.648438 0.429688 7.296875 -0.265625 C 6.953125 -0.972656 6.492188 -1.972656 5.921875 -3.265625 C 5.359375 -4.566406 4.851562 -5.648438 4.40625 -6.515625 C 3.957031 -7.390625 3.320312 -7.835938 2.5 -7.859375 L 2.53125 -9.09375 C 3.1875 -9.351562 4.054688 -9.757812 5.140625 -10.3125 C 7.785156 -11.6875 9.210938 -12.367188 9.421875 -12.359375 C 10.035156 -12.347656 10.867188 -10.921875 11.921875 -8.078125 C 12.984375 -5.234375 13.800781 -3.804688 14.375 -3.796875 C 14.789062 -3.785156 15.179688 -3.9375 15.546875 -4.25 C 15.921875 -4.570312 16.113281 -5.019531 16.125 -5.59375 L 16.4375 -19.390625 C 16.476562 -21.222656 15.988281 -22.15625 14.96875 -22.1875 C 14.644531 -22.1875 13.347656 -21.722656 11.078125 -20.796875 C 8.804688 -19.867188 7.53125 -19.40625 7.25 -19.40625 Z M 7.25 -19.40625 "/></g></g></g><g fill="#ffffff" fill-opacity="1"><g transform="translate(211.397383, 200.473808)"><g><path d="M 16.34375 -5.28125 L 18.328125 -34.71875 C 18.429688 -36.21875 18.34375 -37.300781 18.0625 -37.96875 C 17.78125 -38.644531 17.128906 -39.019531 16.109375 -39.09375 L 16.234375 -41 L 29.140625 -45.390625 L 29.984375 -43.375 C 29.078125 -43.4375 28.179688 -42.96875 27.296875 -41.96875 C 26.503906 -41 26.035156 -39.472656 25.890625 -37.390625 L 23.9375 -8.46875 C 23.84375 -7.113281 24.046875 -5.925781 24.546875 -4.90625 C 25.046875 -3.894531 25.722656 -3.359375 26.578125 -3.296875 L 26.484375 -1.9375 C 26.203125 -1.914062 23.898438 -0.828125 19.578125 1.328125 C 19.296875 1.222656 18.953125 1.085938 18.546875 0.921875 C 18.148438 0.753906 17.640625 0.320312 17.015625 -0.375 C 16.390625 -1.082031 16.101562 -1.859375 16.15625 -2.703125 C 15.914062 -2.609375 15.195312 -2.273438 14 -1.703125 C 10.863281 -0.191406 9.015625 0.546875 8.453125 0.515625 C 7.140625 0.421875 5.96875 -0.507812 4.9375 -2.28125 C 3.914062 -4.050781 3.457031 -5.671875 3.5625 -7.140625 L 5.640625 -37.90625 C 5.796875 -40.144531 4.890625 -41.539062 2.921875 -42.09375 L 3.015625 -43.4375 L 9.9375 -46.703125 C 10.800781 -46.273438 11.585938 -45.613281 12.296875 -44.71875 C 13.015625 -43.832031 13.351562 -43.03125 13.3125 -42.3125 L 11.28125 -12.328125 C 11.101562 -9.765625 11.359375 -7.984375 12.046875 -6.984375 C 12.742188 -5.992188 14.175781 -5.425781 16.34375 -5.28125 Z M 16.34375 -5.28125 "/></g></g></g><g fill="#ffffff" fill-opacity="1"><g transform="translate(236.711448, 202.171519)"><g><path d="M 8.984375 -18.671875 C 7.960938 -18.785156 7.171875 -19.65625 6.609375 -21.28125 C 6.054688 -22.90625 5.910156 -24.835938 6.171875 -27.078125 L 7.609375 -39.734375 C 7.703125 -40.515625 9.984375 -41.601562 14.453125 -43 C 18.929688 -44.40625 21.5 -45.066406 22.15625 -44.984375 C 22.644531 -44.929688 23.238281 -44.046875 23.9375 -42.328125 C 24.101562 -41.890625 24.34375 -41.304688 24.65625 -40.578125 C 24.96875 -39.847656 25.210938 -39.242188 25.390625 -38.765625 C 25.804688 -37.734375 26.425781 -37.171875 27.25 -37.078125 L 27.109375 -35.84375 C 26.421875 -35.632812 25.5 -35.3125 24.34375 -34.875 C 21.613281 -33.726562 20.144531 -33.171875 19.9375 -33.203125 C 19.332031 -33.265625 18.710938 -34.546875 18.078125 -37.046875 C 17.441406 -39.546875 16.835938 -40.828125 16.265625 -40.890625 C 15.535156 -40.972656 15.101562 -40.410156 14.96875 -39.203125 L 13.421875 -25.625 C 13.234375 -24 13.503906 -23.144531 14.234375 -23.0625 C 14.390625 -23.050781 15.707031 -23.4375 18.1875 -24.21875 C 20.664062 -25.007812 22.148438 -25.378906 22.640625 -25.328125 C 23.609375 -25.210938 24.378906 -24.328125 24.953125 -22.671875 C 25.523438 -21.023438 25.671875 -18.984375 25.390625 -16.546875 L 23.90625 -3.5625 C 23.820312 -2.800781 21.347656 -1.738281 16.484375 -0.375 C 11.617188 0.976562 8.847656 1.617188 8.171875 1.546875 C 7.878906 1.515625 7.585938 1.132812 7.296875 0.40625 C 7.015625 -0.320312 6.648438 -1.359375 6.203125 -2.703125 C 5.765625 -4.054688 5.359375 -5.1875 4.984375 -6.09375 C 4.617188 -7 4.023438 -7.5 3.203125 -7.59375 L 3.34375 -8.8125 C 4.03125 -9.019531 4.9375 -9.347656 6.0625 -9.796875 C 8.8125 -10.921875 10.289062 -11.472656 10.5 -11.453125 C 11.113281 -11.378906 11.816406 -9.878906 12.609375 -6.953125 C 13.398438 -4.023438 14.082031 -2.53125 14.65625 -2.46875 C 15.070312 -2.414062 15.476562 -2.53125 15.875 -2.8125 C 16.269531 -3.101562 16.5 -3.535156 16.5625 -4.109375 L 18.125 -17.8125 C 18.332031 -19.632812 17.929688 -20.601562 16.921875 -20.71875 C 16.597656 -20.757812 15.265625 -20.421875 12.921875 -19.703125 C 10.578125 -18.984375 9.265625 -18.640625 8.984375 -18.671875 Z M 8.984375 -18.671875 "/></g></g></g></svg>